<svg width="25" height="24" viewBox="0 0 25 24" fill="none" xmlns="http://www.w3.org/2000/svg">
<path fill-rule="evenodd" clip-rule="evenodd" d="M12.4513 20.3681C9.08276 20.3681 6.20508 19.8781 6.20508 17.9161C6.20508 15.9541 9.06404 14.2461 12.4513 14.2461C15.8199 14.2461 18.6976 15.9381 18.6976 17.8991C18.6976 19.8601 15.8386 20.3681 12.4513 20.3681Z" stroke="#2F2F2F" stroke-width="1.5" stroke-linecap="round" stroke-linejoin="round"/>
<path fill-rule="evenodd" clip-rule="evenodd" d="M12.4515 11.4485C14.6626 11.4485 16.4555 9.72551 16.4555 7.59951C16.4555 5.47351 14.6626 3.74951 12.4515 3.74951C10.2405 3.74951 8.44753 5.47351 8.44753 7.59951C8.44129 9.71751 10.2197 11.4415 12.4234 11.4485H12.4515Z" stroke="#2F2F2F" stroke-width="1.5" stroke-linecap="round" stroke-linejoin="round"/>
<path d="M19.0967 10.3915C20.3832 10.0605 21.3317 8.93254 21.3317 7.58954C21.3317 6.18854 20.299 5.01854 18.9241 4.74854" stroke="#2F2F2F" stroke-width="1.5" stroke-linecap="round" stroke-linejoin="round"/>
<path d="M19.7009 13.5444C21.5251 13.5444 23.083 14.7334 23.083 15.7954C23.083 16.4204 22.5453 17.1014 21.73 17.2854" stroke="#2F2F2F" stroke-width="1.5" stroke-linecap="round" stroke-linejoin="round"/>
<path d="M5.80729 10.3915C4.51977 10.0605 3.57129 8.93254 3.57129 7.58954C3.57129 6.18854 4.60505 5.01854 5.97889 4.74854" stroke="#2F2F2F" stroke-width="1.5" stroke-linecap="round" stroke-linejoin="round"/>
<path d="M5.2019 13.5444C3.37774 13.5444 1.81982 14.7334 1.81982 15.7954C1.81982 16.4204 2.3575 17.1014 3.1739 17.2854" stroke="#2F2F2F" stroke-width="1.5" stroke-linecap="round" stroke-linejoin="round"/>
</svg>
