<svg width="25" height="24" viewBox="0 0 25 24" fill="none" xmlns="http://www.w3.org/2000/svg">
<path d="M17.6801 13.4V16.4C17.6801 20.4 16.0161 22 11.8561 22H7.90408C3.74408 22 2.08008 20.4 2.08008 16.4V12.6C2.08008 8.6 3.74408 7 7.90408 7H11.0241" stroke="#2F2F2F" stroke-width="1.5" stroke-linecap="round" stroke-linejoin="round"/>
<path d="M17.6799 13.4H14.3519C11.8559 13.4 11.0239 12.6 11.0239 10.2V7L17.6799 13.4Z" stroke="#2F2F2F" stroke-width="1.5" stroke-linecap="round" stroke-linejoin="round"/>
<path d="M12.064 2H16.224" stroke="#2F2F2F" stroke-width="1.5" stroke-linecap="round" stroke-linejoin="round"/>
<path d="M7.28003 5C7.28003 3.34 8.67363 2 10.4 2H13.1248" stroke="#2F2F2F" stroke-width="1.5" stroke-linecap="round" stroke-linejoin="round"/>
<path d="M22.8799 8V14.19C22.8799 15.74 21.5695 17 19.9575 17" stroke="#2F2F2F" stroke-width="1.5" stroke-linecap="round" stroke-linejoin="round"/>
<path d="M22.8799 8H19.7599C17.4199 8 16.6399 7.25 16.6399 5V2L22.8799 8Z" stroke="#2F2F2F" stroke-width="1.5" stroke-linecap="round" stroke-linejoin="round"/>
</svg>
