<svg width="30" height="30" viewBox="0 0 30 30" fill="none" xmlns="http://www.w3.org/2000/svg">
<circle cx="15" cy="15" r="15" fill="#F3FCFF"/>
<path d="M16.6315 11.2233L16.2651 10.8569C14.735 9.32687 13.97 8.56183 13.1406 8.5625C12.8697 8.56272 12.6016 8.61798 12.3527 8.72494C11.5907 9.05234 11.1906 10.0576 10.3905 12.0681L10.3326 12.2136C10.1057 12.7835 9.9923 13.0685 9.81015 13.2984C9.67197 13.4728 9.50565 13.623 9.31804 13.7426C9.07076 13.9004 8.77568 13.9841 8.18554 14.1516C7.27042 14.4113 6.81287 14.5412 6.60981 14.8181C6.4589 15.024 6.3924 15.2797 6.42392 15.5329C6.46633 15.8737 6.80265 16.21 7.47529 16.8827L10.6058 20.0132C11.2784 20.6858 11.6147 21.0221 11.9555 21.0645C12.2088 21.0961 12.4645 21.0296 12.6703 20.8787C12.9473 20.6756 13.0771 20.218 13.3369 19.3029C13.5044 18.7128 13.5881 18.4177 13.7458 18.1704C13.8655 17.9828 14.0156 17.8165 14.19 17.6783C14.4199 17.4962 14.7049 17.3827 15.2749 17.1559L15.4204 17.098C17.4309 16.2978 18.4361 15.8978 18.7635 15.1357C18.8705 14.8868 18.9257 14.6188 18.926 14.3478C18.9266 13.5185 18.1616 12.7534 16.6315 11.2233Z" stroke="#005787" stroke-width="1.5"/>
<path d="M6.34679 21.142L9.04053 18.4482" stroke="#005787" stroke-width="1.5" stroke-linecap="round"/>
<path d="M25 11H20" stroke="#005787" stroke-width="1.5" stroke-linecap="round"/>
<path d="M25 15.5H21" stroke="#005787" stroke-width="1.5" stroke-linecap="round"/>
<path d="M25 20H16" stroke="#005787" stroke-width="1.5" stroke-linecap="round"/>
</svg>
