<svg width="30" height="30" viewBox="0 0 30 30" fill="none" xmlns="http://www.w3.org/2000/svg">
<circle cx="15" cy="15" r="15" fill="#FFEEB0"/>
<g clip-path="url(#clip0_357_10125)">
<path d="M7.41675 14.9997C7.41675 14.5855 7.08096 14.2497 6.66675 14.2497C6.25253 14.2497 5.91675 14.5855 5.91675 14.9997H7.41675ZM22.5834 14.9997C22.5834 15.4139 22.9192 15.7497 23.3334 15.7497C23.7476 15.7497 24.0834 15.4139 24.0834 14.9997H22.5834ZM8.66709 9.58301L9.20709 10.1035L9.22244 10.0876L9.23682 10.0708L8.66709 9.58301ZM21.3331 20.4163L21.9028 20.9041L21.9121 20.8933L21.9209 20.8821L21.3331 20.4163ZM8.46899 5.83635C8.47083 5.42214 8.13655 5.08486 7.72234 5.08302C7.30813 5.08117 6.97085 5.41545 6.969 5.82966L8.46899 5.83635ZM7.71161 7.48777L6.96162 7.48442V7.48442L7.71161 7.48777ZM10.7783 10.5544L10.7816 11.3044L10.7783 10.5544ZM12.4364 11.297C12.8506 11.2952 13.1849 10.9579 13.183 10.5437C13.1812 10.1295 12.8439 9.79521 12.4297 9.79706L12.4364 11.297ZM8.05207 9.91857L7.45894 10.3776L7.45894 10.3776L8.05207 9.91857ZM8.34748 10.214L7.88846 10.8071L7.88846 10.8071L8.34748 10.214ZM21.4641 24.096C21.4623 24.5102 21.7966 24.8475 22.2108 24.8493C22.625 24.8512 22.9623 24.5169 22.9641 24.1027L21.4641 24.096ZM22.2215 22.4446L22.9715 22.4479L22.2215 22.4446ZM19.1548 19.3779L19.1515 18.6279L19.1548 19.3779ZM17.4967 18.6353C17.0825 18.6371 16.7482 18.9744 16.7501 19.3886C16.7519 19.8028 17.0892 20.1371 17.5034 20.1353L17.4967 18.6353ZM21.8811 20.0138L22.4742 19.5548L22.4742 19.5548L21.8811 20.0138ZM21.5856 19.7184L22.0447 19.1252H22.0447L21.5856 19.7184ZM8.19135 10.0766L7.66145 10.6074L8.19135 10.0766ZM15.0001 22.583C10.8119 22.583 7.41675 19.1878 7.41675 14.9997H5.91675C5.91675 20.0163 9.98349 24.083 15.0001 24.083V22.583ZM15.0001 7.41634C19.1882 7.41634 22.5834 10.8115 22.5834 14.9997H24.0834C24.0834 9.98309 20.0167 5.91634 15.0001 5.91634V7.41634ZM9.23682 10.0708C10.6288 8.44483 12.6939 7.41634 15.0001 7.41634V5.91634C12.2374 5.91634 9.76217 7.15064 8.09736 9.09525L9.23682 10.0708ZM20.7633 19.9286C19.3713 21.5545 17.3062 22.583 15.0001 22.583V24.083C17.7628 24.083 20.238 22.8487 21.9028 20.9041L20.7633 19.9286ZM6.969 5.82966L6.96162 7.48442L8.4616 7.49111L8.46899 5.83635L6.969 5.82966ZM10.7816 11.3044L12.4364 11.297L12.4297 9.79706L10.7749 9.80444L10.7816 11.3044ZM6.96162 7.48442C6.95875 8.12661 6.95519 8.67162 7.00308 9.1102C7.05262 9.56387 7.1649 9.99764 7.45894 10.3776L8.6452 9.45955C8.58995 9.38816 8.52905 9.26635 8.49422 8.94736C8.45773 8.61328 8.45858 8.16857 8.4616 7.49111L6.96162 7.48442ZM10.7749 9.80444C10.0975 9.80747 9.65276 9.80831 9.31869 9.77183C8.9997 9.73699 8.87789 9.6761 8.8065 9.62085L7.88846 10.8071C8.26841 11.1011 8.70218 11.2134 9.15585 11.263C9.59443 11.3109 10.1394 11.3073 10.7816 11.3044L10.7749 9.80444ZM22.9641 24.1027L22.9715 22.4479L21.4715 22.4412L21.4641 24.096L22.9641 24.1027ZM19.1515 18.6279L17.4967 18.6353L17.5034 20.1353L19.1582 20.1279L19.1515 18.6279ZM22.9715 22.4479C22.9744 21.8057 22.9779 21.2607 22.93 20.8221C22.8805 20.3685 22.7682 19.9347 22.4742 19.5548L21.2879 20.4728C21.3432 20.5442 21.4041 20.666 21.4389 20.985C21.4754 21.3191 21.4745 21.7638 21.4715 22.4412L22.9715 22.4479ZM19.1582 20.1279C19.8356 20.1249 20.2804 20.124 20.6144 20.1605C20.9334 20.1953 21.0552 20.2562 21.1266 20.3115L22.0447 19.1252C21.6647 18.8312 21.2309 18.7189 20.7773 18.6694C20.3387 18.6215 19.7937 18.625 19.1515 18.6279L19.1582 20.1279ZM7.45894 10.3776C7.52155 10.4585 7.5892 10.5352 7.66145 10.6074L8.72125 9.54584C8.69412 9.51875 8.66871 9.48994 8.6452 9.45954L7.45894 10.3776ZM7.66145 10.6074C7.73278 10.6786 7.80859 10.7453 7.88846 10.8071L8.8065 9.62085C8.7765 9.59763 8.74803 9.57257 8.72125 9.54584L7.66145 10.6074ZM8.12709 9.06253L7.65135 9.55611L8.73134 10.5971L9.20709 10.1035L8.12709 9.06253ZM22.4742 19.5548C22.4199 19.4846 22.3618 19.4176 22.3003 19.354L21.2226 20.3974C21.2457 20.4213 21.2675 20.4464 21.2879 20.4728L22.4742 19.5548ZM22.3003 19.354C22.2207 19.2718 22.1353 19.1954 22.0447 19.1252L21.1266 20.3115C21.1607 20.3378 21.1927 20.3665 21.2226 20.3974L22.3003 19.354ZM21.9209 20.8821L22.3493 20.3415L21.1736 19.4099L20.7452 19.9506L21.9209 20.8821Z" fill="#FFA901"/>
</g>
<defs>
<clipPath id="clip0_357_10125">
<rect width="20" height="20" fill="white" transform="translate(5 5)"/>
</clipPath>
</defs>
</svg>
