<svg width="45" height="45" viewBox="0 0 45 45" fill="none" xmlns="http://www.w3.org/2000/svg">
<circle cx="22.5" cy="22.5" r="22.5" fill="#D0F2FF"/>
<path d="M20.0833 28.8337H19.6666C16.3333 28.8337 14.6666 28.0003 14.6666 23.8337V19.667C14.6666 16.3337 16.3333 14.667 19.6666 14.667H26.3333C29.6666 14.667 31.3333 16.3337 31.3333 19.667V23.8337C31.3333 27.167 29.6666 28.8337 26.3333 28.8337H25.9166C25.6583 28.8337 25.4083 28.9587 25.25 29.167L24 30.8337C23.45 31.567 22.55 31.567 22 30.8337L20.75 29.167C20.6166 28.9837 20.3083 28.8337 20.0833 28.8337Z" stroke="#252525" stroke-width="1.5" stroke-miterlimit="10" stroke-linecap="round" stroke-linejoin="round"/>
<path d="M26.3304 22.1667H26.3379" stroke="#252525" stroke-width="2" stroke-linecap="round" stroke-linejoin="round"/>
<path d="M22.9962 22.1667H23.0037" stroke="#252525" stroke-width="2" stroke-linecap="round" stroke-linejoin="round"/>
<path d="M19.6621 22.1667H19.6696" stroke="#252525" stroke-width="2" stroke-linecap="round" stroke-linejoin="round"/>
</svg>
