<svg width="45" height="45" viewBox="0 0 45 45" fill="none" xmlns="http://www.w3.org/2000/svg">
<circle cx="22.5" cy="22.5" r="22.5" fill="#D0F2FF"/>
<path d="M24.9834 22.9999C24.9834 24.6499 23.6501 25.9833 22.0001 25.9833C20.3501 25.9833 19.0167 24.6499 19.0167 22.9999C19.0167 21.3499 20.3501 20.0166 22.0001 20.0166C23.6501 20.0166 24.9834 21.3499 24.9834 22.9999Z" stroke="#3D4754" stroke-width="1.5" stroke-linecap="round" stroke-linejoin="round"/>
<path d="M22 29.8913C24.9417 29.8913 27.6833 28.1579 29.5917 25.1579C30.3417 23.9829 30.3417 22.0079 29.5917 20.8329C27.6833 17.8329 24.9417 16.0996 22 16.0996C19.0583 16.0996 16.3167 17.8329 14.4083 20.8329C13.6583 22.0079 13.6583 23.9829 14.4083 25.1579C16.3167 28.1579 19.0583 29.8913 22 29.8913Z" stroke="#3D4754" stroke-width="1.5" stroke-linecap="round" stroke-linejoin="round"/>
</svg>
