<svg width="26" height="24" viewBox="0 0 26 24" fill="none" xmlns="http://www.w3.org/2000/svg">
<path d="M23.92 15.37V17.5601C23.92 20.0001 22.0688 22.3 19.552 22.97C19.3752 23.01 19.188 23.01 19.0216 22.97C17.7944 22.65 16.7128 21.93 15.9536 21C15.132 20.02 14.6536 18.8101 14.6536 17.5601V15.37C14.6536 14.95 14.976 14.49 15.3712 14.33L18.2624 13.1899C18.9176 12.9399 19.6456 12.9399 20.3008 13.1899L21.3408 13.6L23.2024 14.33C23.5976 14.49 23.92 14.95 23.92 15.37Z" stroke="#2F2F2F" stroke-width="1.5" stroke-linecap="round" stroke-linejoin="round"/>
<path d="M18.72 16.5L20.4465 18L24.96 15" stroke="#2F2F2F" stroke-width="1.5" stroke-linecap="round" stroke-linejoin="round"/>
<path d="M21.7879 11.0103L21.3407 13.6003L20.3007 13.1902C19.6455 12.9402 18.9175 12.9402 18.2623 13.1902L15.3711 14.3302C14.9759 14.4902 14.6535 14.9503 14.6535 15.3703V17.5604C14.6535 18.8104 15.1319 20.0203 15.9535 21.0003H6.42711C5.00231 21.0003 3.66073 19.9104 3.42153 18.5604L2.11112 11.0103C1.94472 10.0803 2.43351 8.83028 3.20311 8.24028L10.0463 2.98027C11.0967 2.17027 12.8023 2.17028 13.8527 2.99028L20.6959 8.24028C21.4551 8.83028 21.9543 10.0803 21.7879 11.0103Z" stroke="#2F2F2F" stroke-width="1.5" stroke-linecap="round" stroke-linejoin="round"/>
</svg>
