<svg width="20" height="20" viewBox="0 0 20 20" fill="none" xmlns="http://www.w3.org/2000/svg">
<path d="M4.16675 1.04199C3.82157 1.04199 3.54175 1.32181 3.54175 1.66699C3.54175 2.01217 3.82157 2.29199 4.16675 2.29199V1.04199ZM15.8334 2.29199C16.1786 2.29199 16.4584 2.01217 16.4584 1.66699C16.4584 1.32181 16.1786 1.04199 15.8334 1.04199V2.29199ZM4.16675 17.7087C3.82157 17.7087 3.54175 17.9885 3.54175 18.3337C3.54175 18.6788 3.82157 18.9587 4.16675 18.9587V17.7087ZM15.8334 18.9587C16.1786 18.9587 16.4584 18.6788 16.4584 18.3337C16.4584 17.9885 16.1786 17.7087 15.8334 17.7087V18.9587ZM5.62508 1.66699C5.62508 1.32181 5.34526 1.04199 5.00008 1.04199C4.6549 1.04199 4.37508 1.32181 4.37508 1.66699H5.62508ZM14.3751 18.3337C14.3751 18.6788 14.6549 18.9587 15.0001 18.9587C15.3453 18.9587 15.6251 18.6788 15.6251 18.3337H14.3751ZM15.6251 1.66699C15.6251 1.32181 15.3453 1.04199 15.0001 1.04199C14.6549 1.04199 14.3751 1.32181 14.3751 1.66699H15.6251ZM4.37508 18.3337C4.37508 18.6788 4.6549 18.9587 5.00008 18.9587C5.34526 18.9587 5.62508 18.6788 5.62508 18.3337H4.37508ZM13.1251 5.00033C13.1251 4.65515 12.8453 4.37533 12.5001 4.37533C12.1549 4.37533 11.8751 4.65515 11.8751 5.00033H13.1251ZM8.12508 5.00033C8.12508 4.65515 7.84526 4.37533 7.50008 4.37533C7.1549 4.37533 6.87508 4.65515 6.87508 5.00033H8.12508ZM7.50008 15.2087C7.1549 15.2087 6.87508 15.4885 6.87508 15.8337C6.87508 16.1788 7.1549 16.4587 7.50008 16.4587V15.2087ZM12.5001 16.4587C12.8453 16.4587 13.1251 16.1788 13.1251 15.8337C13.1251 15.4885 12.8453 15.2087 12.5001 15.2087V16.4587ZM4.16675 2.29199H15.8334V1.04199H4.16675V2.29199ZM4.16675 18.9587H15.8334V17.7087H4.16675V18.9587ZM4.37508 1.66699V5.00033H5.62508V1.66699H4.37508ZM14.3751 15.0003V18.3337H15.6251V15.0003H14.3751ZM10.0001 10.6253C12.4163 10.6253 14.3751 12.5841 14.3751 15.0003H15.6251C15.6251 11.8937 13.1067 9.37533 10.0001 9.37533V10.6253ZM4.37508 5.00033C4.37508 8.10693 6.89348 10.6253 10.0001 10.6253V9.37533C7.58384 9.37533 5.62508 7.41657 5.62508 5.00033H4.37508ZM14.3751 1.66699V5.00033H15.6251V1.66699H14.3751ZM4.37508 15.0003V18.3337H5.62508V15.0003H4.37508ZM10.0001 9.37533C6.89348 9.37533 4.37508 11.8937 4.37508 15.0003H5.62508C5.62508 12.5841 7.58384 10.6253 10.0001 10.6253V9.37533ZM14.3751 5.00033C14.3751 7.41657 12.4163 9.37533 10.0001 9.37533V10.6253C13.1067 10.6253 15.6251 8.10693 15.6251 5.00033H14.3751ZM11.8751 5.00033C11.8751 6.03586 11.0356 6.87533 10.0001 6.87533V8.12533C11.726 8.12533 13.1251 6.72622 13.1251 5.00033H11.8751ZM10.0001 6.87533C8.96455 6.87533 8.12508 6.03586 8.12508 5.00033H6.87508C6.87508 6.72622 8.27419 8.12533 10.0001 8.12533V6.87533ZM7.50008 16.4587H12.5001V15.2087H7.50008V16.4587Z" fill="#FF4747"/>
</svg>
