<svg width="25" height="24" viewBox="0 0 25 24" fill="none" xmlns="http://www.w3.org/2000/svg">
<path d="M3.12012 9.10986V14.8799C3.12012 16.9999 3.12012 16.9999 5.20012 18.3499L10.9201 21.5299C11.7833 22.0099 13.1873 22.0099 14.0401 21.5299L19.7601 18.3499C21.8401 16.9999 21.8401 16.9999 21.8401 14.8899V9.10986C21.8401 6.99986 21.8401 6.99986 19.7601 5.64986L14.0401 2.46986C13.1873 1.98986 11.7833 1.98986 10.9201 2.46986L5.20012 5.64986C3.12012 6.99986 3.12012 6.99986 3.12012 9.10986Z" stroke="#2F2F2F" stroke-width="1.5" stroke-linecap="round" stroke-linejoin="round"/>
<path d="M12.4801 15C14.2032 15 15.6001 13.6569 15.6001 12C15.6001 10.3431 14.2032 9 12.4801 9C10.757 9 9.36011 10.3431 9.36011 12C9.36011 13.6569 10.757 15 12.4801 15Z" stroke="#2F2F2F" stroke-width="1.5" stroke-linecap="round" stroke-linejoin="round"/>
</svg>
