<svg width="22" height="21" viewBox="0 0 22 21" fill="none" xmlns="http://www.w3.org/2000/svg">
<path d="M5.47105 2.60105C5.93339 2.304 6.41886 2.04636 6.92186 1.82976C8.34861 1.21539 9.06199 0.908197 10.011 1.4994C10.9601 2.09061 10.9601 3.06041 10.9601 5.00001V6.50001C10.9601 8.38562 10.9601 9.32843 11.5693 9.91422C12.1785 10.5 13.159 10.5 15.1201 10.5H16.6801C18.6973 10.5 19.7059 10.5 20.3207 11.4125C20.9356 12.3251 20.6161 13.011 19.9771 14.3829C19.7519 14.8666 19.4839 15.3334 19.175 15.7779C18.0894 17.3402 16.5463 18.5578 14.741 19.2769C12.9357 19.9959 10.9491 20.184 9.03259 19.8175C7.11606 19.4509 5.35561 18.5461 3.97387 17.2175C2.59212 15.8889 1.65115 14.1962 1.26992 12.3534C0.888702 10.5105 1.08436 8.60041 1.83215 6.86451C2.57995 5.12861 3.84629 3.64492 5.47105 2.60105Z" stroke="#2F2F2F" stroke-width="1.5"/>
</svg>
