<svg width="25" height="24" viewBox="0 0 25 24" fill="none" xmlns="http://www.w3.org/2000/svg">
<path d="M11.1816 16.8604V18.8904C11.1816 20.6104 9.51762 22.0004 7.46882 22.0004C5.42002 22.0004 3.74561 20.6104 3.74561 18.8904V16.8604C3.74561 18.5804 5.40962 19.8004 7.46882 19.8004C9.51762 19.8004 11.1816 18.5704 11.1816 16.8604Z" stroke="#2F2F2F" stroke-width="1.5" stroke-linecap="round" stroke-linejoin="round"/>
<path d="M11.18 14.1097C11.18 14.6097 11.0344 15.0697 10.7848 15.4697C10.1712 16.4397 8.9128 17.0497 7.4568 17.0497C6.0008 17.0497 4.74238 16.4297 4.12878 15.4697C3.87918 15.0697 3.73364 14.6097 3.73364 14.1097C3.73364 13.2497 4.14962 12.4797 4.81522 11.9197C5.49122 11.3497 6.41679 11.0098 7.44639 11.0098C8.47599 11.0098 9.40162 11.3597 10.0776 11.9197C10.764 12.4697 11.18 13.2497 11.18 14.1097Z" stroke="#2F2F2F" stroke-width="1.5" stroke-linecap="round" stroke-linejoin="round"/>
<path d="M11.1816 14.11V16.86C11.1816 18.58 9.51762 19.8 7.46882 19.8C5.42002 19.8 3.74561 18.57 3.74561 16.86V14.11C3.74561 12.39 5.40962 11 7.46882 11C8.49842 11 9.42405 11.35 10.1001 11.91C10.7657 12.47 11.1816 13.25 11.1816 14.11Z" stroke="#2F2F2F" stroke-width="1.5" stroke-linecap="round" stroke-linejoin="round"/>
<path d="M22.8799 10.9702V13.0302C22.8799 13.5802 22.4223 14.0302 21.8399 14.0502H19.8015C18.6783 14.0502 17.6487 13.2602 17.5551 12.1802C17.4927 11.5502 17.7423 10.9602 18.1791 10.5502C18.5639 10.1702 19.0943 9.9502 19.6767 9.9502H21.8399C22.4223 9.9702 22.8799 10.4202 22.8799 10.9702Z" stroke="#2F2F2F" stroke-width="1.5" stroke-linecap="round" stroke-linejoin="round"/>
<path d="M2.08008 10.5V8.5C2.08008 5.78 3.78568 3.88 6.43768 3.56C6.70808 3.52 6.98888 3.5 7.28008 3.5H16.6401C16.9105 3.5 17.1705 3.50999 17.4201 3.54999C20.1033 3.84999 21.8401 5.76 21.8401 8.5V9.95001H19.6769C19.0945 9.95001 18.5641 10.17 18.1793 10.55C17.7425 10.96 17.4929 11.55 17.5553 12.18C17.6489 13.26 18.6785 14.05 19.8017 14.05H21.8401V15.5C21.8401 18.5 19.7601 20.5 16.6401 20.5H14.0401" stroke="#2F2F2F" stroke-width="1.5" stroke-linecap="round" stroke-linejoin="round"/>
</svg>
